<svg width="83" height="32" viewBox="0 0 83 32" fill="none" xmlns="http://www.w3.org/2000/svg">
<path d="M13.3862 9.8287C12.944 8.96057 12.2489 8.24694 11.3928 7.78197C10.4949 7.27782 9.34235 7.02541 7.93504 7.02475H1.86914V13.3949L4.04339 15.5691V8.95297H7.86469C8.83985 8.95297 9.62285 9.11499 10.2137 9.43902C10.7747 9.73462 11.225 10.2039 11.4972 10.7767C12.0288 12.0086 12.0288 13.4053 11.4972 14.6372C11.2257 15.2119 10.7792 15.6858 10.2217 15.991C9.63827 16.3244 8.86431 16.4911 7.89983 16.4911H1.86914V24.9752H4.04339V18.4193H7.97014C9.36608 18.4193 10.5113 18.1635 11.4057 17.652C12.2612 17.1807 12.9532 16.4607 13.3902 15.5872C13.8275 14.6901 14.0483 13.7029 14.0349 12.7049C14.0487 11.7084 13.8264 10.7228 13.3862 9.8287Z" fill="#1B1B1B"/>
<path d="M29.1395 11.1744C28.5214 9.8857 27.5283 8.81383 26.2904 8.09932C25.0521 7.38227 23.5621 7.02408 21.8203 7.02475H16.0356V13.489L18.2099 15.6635V8.95297H21.6807C23.0827 8.95297 24.254 9.23483 25.1947 9.79856C26.1366 10.3637 26.8783 11.2092 27.3157 12.2169C27.8158 13.4016 28.0578 14.6793 28.0257 15.9648C28.058 17.261 27.8132 18.549 27.3076 19.7429C26.8564 20.7677 26.0925 21.6233 25.1253 22.1873C24.1492 22.7598 22.9189 23.0464 21.4346 23.047H18.2099V16.4911H16.0356V24.9752H21.5753C23.3981 24.9752 24.9463 24.6144 26.2201 23.8926C27.4855 23.1812 28.5016 22.0978 29.1305 20.7894C29.7973 19.4437 30.1307 17.8354 30.1307 15.9647C30.1307 14.1069 29.8003 12.5101 29.1395 11.1744Z" fill="#1B1B1B"/>
<path d="M45.12 10.78C46.048 10.78 46.848 10.972 47.52 11.356C48.192 11.7293 48.752 12.284 49.2 13.02L48.128 13.852C47.7333 13.1693 47.2853 12.6893 46.784 12.412C46.2933 12.124 45.696 11.98 44.992 11.98C44.4267 11.98 43.9573 12.06 43.584 12.22C43.2213 12.38 42.9547 12.5933 42.784 12.86C42.6133 13.116 42.528 13.4093 42.528 13.74C42.528 14.1133 42.6453 14.444 42.88 14.732C43.1147 15.0093 43.584 15.228 44.288 15.388L46.576 15.9C47.5893 16.124 48.2933 16.4653 48.688 16.924C49.0933 17.372 49.296 17.932 49.296 18.604C49.296 19.2013 49.1253 19.7347 48.784 20.204C48.4533 20.6627 47.984 21.02 47.376 21.276C46.768 21.532 46.0533 21.66 45.232 21.66C44.464 21.66 43.7867 21.5587 43.2 21.356C42.624 21.1427 42.128 20.86 41.712 20.508C41.296 20.156 40.9547 19.7613 40.688 19.324L41.808 18.412C42.0107 18.8173 42.272 19.1747 42.592 19.484C42.912 19.7933 43.296 20.0333 43.744 20.204C44.2027 20.3747 44.7253 20.46 45.312 20.46C45.856 20.46 46.3253 20.396 46.72 20.268C47.1253 20.1293 47.4347 19.932 47.648 19.676C47.8613 19.4093 47.968 19.0893 47.968 18.716C47.968 18.3747 47.856 18.0707 47.632 17.804C47.408 17.5267 46.9867 17.3187 46.368 17.18L43.888 16.62C43.2373 16.4707 42.7093 16.268 42.304 16.012C41.9093 15.7453 41.6213 15.436 41.44 15.084C41.2693 14.7213 41.184 14.332 41.184 13.916C41.184 13.3507 41.3387 12.8333 41.648 12.364C41.968 11.884 42.4213 11.5 43.008 11.212C43.6053 10.924 44.3093 10.78 45.12 10.78ZM53.626 11.228V19.292C53.626 19.6867 53.738 19.98 53.962 20.172C54.186 20.364 54.474 20.46 54.826 20.46C55.1353 20.46 55.402 20.4067 55.626 20.3C55.85 20.1933 56.0527 20.0493 56.234 19.868L56.682 20.94C56.4367 21.164 56.1433 21.34 55.802 21.468C55.4713 21.596 55.0873 21.66 54.65 21.66C54.2447 21.66 53.866 21.5907 53.514 21.452C53.162 21.3027 52.8793 21.0733 52.666 20.764C52.4633 20.444 52.3567 20.028 52.346 19.516V11.58L53.626 11.228ZM56.538 13.5V14.604H50.746V13.5H56.538ZM61.7531 13.34C62.5105 13.34 63.1771 13.5053 63.7531 13.836C64.3398 14.1667 64.7985 14.6467 65.1291 15.276C65.4598 15.8947 65.6251 16.636 65.6251 17.5C65.6251 18.364 65.4598 19.1107 65.1291 19.74C64.7985 20.3587 64.3398 20.8333 63.7531 21.164C63.1771 21.4947 62.5105 21.66 61.7531 21.66C61.0065 21.66 60.3398 21.4947 59.7531 21.164C59.1665 20.8333 58.7078 20.3587 58.3771 19.74C58.0465 19.1107 57.8811 18.364 57.8811 17.5C57.8811 16.636 58.0465 15.8947 58.3771 15.276C58.7078 14.6467 59.1665 14.1667 59.7531 13.836C60.3398 13.5053 61.0065 13.34 61.7531 13.34ZM61.7531 14.444C61.2091 14.444 60.7451 14.5667 60.3611 14.812C59.9771 15.0573 59.6785 15.4093 59.4651 15.868C59.2625 16.316 59.1611 16.86 59.1611 17.5C59.1611 18.1293 59.2625 18.6733 59.4651 19.132C59.6785 19.5907 59.9771 19.9427 60.3611 20.188C60.7451 20.4333 61.2091 20.556 61.7531 20.556C62.2971 20.556 62.7611 20.4333 63.1451 20.188C63.5291 19.9427 63.8225 19.5907 64.0251 19.132C64.2385 18.6733 64.3451 18.1293 64.3451 17.5C64.3451 16.86 64.2385 16.316 64.0251 15.868C63.8225 15.4093 63.5291 15.0573 63.1451 14.812C62.7611 14.5667 62.2971 14.444 61.7531 14.444ZM68.0349 21.5V13.5H69.0749L69.2509 14.812C69.4749 14.3213 69.8002 13.9533 70.2269 13.708C70.6642 13.4627 71.1922 13.34 71.8109 13.34C71.9495 13.34 72.0989 13.3507 72.2589 13.372C72.4295 13.3933 72.5735 13.436 72.6909 13.5L72.4669 14.668C72.3495 14.6253 72.2215 14.5933 72.0829 14.572C71.9442 14.5507 71.7469 14.54 71.4909 14.54C71.1602 14.54 70.8242 14.636 70.4829 14.828C70.1522 15.02 69.8749 15.3133 69.6509 15.708C69.4269 16.092 69.3149 16.5827 69.3149 17.18V21.5H68.0349ZM77.6601 21.66C76.9028 21.66 76.2255 21.4947 75.6281 21.164C75.0415 20.8333 74.5828 20.3587 74.2521 19.74C73.9215 19.1107 73.7561 18.364 73.7561 17.5C73.7561 16.636 73.9215 15.8947 74.2521 15.276C74.5828 14.6467 75.0361 14.1667 75.6121 13.836C76.1881 13.5053 76.8441 13.34 77.5801 13.34C78.3268 13.34 78.9615 13.5 79.4841 13.82C80.0175 14.14 80.4228 14.5773 80.7001 15.132C80.9775 15.676 81.1161 16.2893 81.1161 16.972C81.1161 17.1533 81.1108 17.3187 81.1001 17.468C81.0895 17.6173 81.0735 17.7507 81.0521 17.868H74.5881V16.732H80.4921L79.8361 16.86C79.8361 16.092 79.6228 15.5 79.1961 15.084C78.7801 14.668 78.2308 14.46 77.5481 14.46C77.0255 14.46 76.5721 14.5827 76.1881 14.828C75.8148 15.0627 75.5215 15.4093 75.3081 15.868C75.1055 16.316 75.0041 16.86 75.0041 17.5C75.0041 18.1293 75.1108 18.6733 75.3241 19.132C75.5375 19.5907 75.8361 19.9427 76.2201 20.188C76.6148 20.4227 77.0841 20.54 77.6281 20.54C78.2148 20.54 78.6895 20.428 79.0521 20.204C79.4255 19.98 79.7241 19.676 79.9481 19.292L80.9561 19.884C80.7535 20.2467 80.4921 20.5613 80.1721 20.828C79.8628 21.0947 79.4948 21.3027 79.0681 21.452C78.6521 21.5907 78.1828 21.66 77.6601 21.66Z" fill="#1B1B1B"/>
</svg>
