<svg width="12" height="14" viewBox="0 0 12 14" fill="none" xmlns="http://www.w3.org/2000/svg">
<path d="M1.99984 13.6667C1.63317 13.6667 1.31928 13.5361 1.05817 13.275C0.797059 13.0139 0.666504 12.7 0.666504 12.3333V4.33334C0.666504 3.96668 0.797059 3.65279 1.05817 3.39168C1.31928 3.13057 1.63317 3.00001 1.99984 3.00001H3.33317C3.33317 2.26668 3.59428 1.6389 4.1165 1.11668C4.63873 0.594455 5.2665 0.333344 5.99984 0.333344C6.73317 0.333344 7.36095 0.594455 7.88317 1.11668C8.40539 1.6389 8.6665 2.26668 8.6665 3.00001H9.99984C10.3665 3.00001 10.6804 3.13057 10.9415 3.39168C11.2026 3.65279 11.3332 3.96668 11.3332 4.33334V12.3333C11.3332 12.7 11.2026 13.0139 10.9415 13.275C10.6804 13.5361 10.3665 13.6667 9.99984 13.6667H1.99984ZM1.99984 12.3333H9.99984V4.33334H8.6665V5.66668C8.6665 5.85557 8.60262 6.0139 8.47484 6.14168C8.34706 6.26945 8.18873 6.33334 7.99984 6.33334C7.81095 6.33334 7.65262 6.26945 7.52484 6.14168C7.39706 6.0139 7.33317 5.85557 7.33317 5.66668V4.33334H4.6665V5.66668C4.6665 5.85557 4.60262 6.0139 4.47484 6.14168C4.34706 6.26945 4.18873 6.33334 3.99984 6.33334C3.81095 6.33334 3.65262 6.26945 3.52484 6.14168C3.39706 6.0139 3.33317 5.85557 3.33317 5.66668V4.33334H1.99984V12.3333ZM4.6665 3.00001H7.33317C7.33317 2.63334 7.20262 2.31945 6.9415 2.05834C6.68039 1.79723 6.3665 1.66668 5.99984 1.66668C5.63317 1.66668 5.31928 1.79723 5.05817 2.05834C4.79706 2.31945 4.6665 2.63334 4.6665 3.00001Z" fill="#1B1B1B"/>
</svg>
